<?xml version="1.0" encoding="utf-8"?>
<!-- Uploaded to: SVG Repo, www.svgrepo.com, Generator: SVG Repo Mixer Tools -->
<svg width="800px" height="800px" viewBox="0 0 1024 1024" class="icon"  version="1.1" xmlns="http://www.w3.org/2000/svg"><path d="M700.6 188.2c-58.4 0-110.4 31.3-144.2 80.1-21.4-32.7-55.3-53.9-93.6-53.9-58 0-106.1 48.5-115.4 112h-44.9c-68.5 0-123.9 63.7-123.9 142.3 0 78.6 55.5 142.3 123.9 142.3h398.1c101.7 0 184.1-94.6 184.1-211.3 0-116.9-82.4-211.5-184.1-211.5z" fill="#FFFFFF" /><path d="M700.6 164.7c-54.6 0-106 24.6-144.2 68.2-25.3-27-58.3-42-93.6-42-61.6 0-114.6 46.1-131.9 112h-28.4c-79.8 0-144.7 74.4-144.7 165.8s64.9 165.7 144.7 165.7h398.1c113 0 204.9-105.3 204.9-234.8 0-129.6-91.9-234.9-204.9-234.9z m0 422.7H302.5c-56.9 0-103.2-53.3-103.2-118.8s46.3-118.8 103.2-118.8h44.9c10.2 0 18.8-8.3 20.5-19.6 7.8-53.5 47.8-92.4 94.9-92.4 30.5 0 58.5 16.2 76.9 44.4 3.9 5.9 9.9 9.4 16.4 9.5 6.1 0 12.6-3.2 16.6-9 31.3-45.2 77.8-71.1 127.8-71.1 90.1 0 163.4 84.3 163.4 187.9 0.1 103.6-73.2 187.9-163.3 187.9zM286.9 688.4L163.8 829.3c-8.1 9.2-8 24.1 0.2 33.2 4 4.5 9.3 6.8 14.6 6.8 5.4 0 10.7-2.3 14.8-7l123.1-140.9c8.1-9.2 8-24.1-0.2-33.2-8.2-9.2-21.4-9.1-29.4 0.2zM478.2 688.2c-8.2-9.1-21.3-9-29.4 0.2l-61.5 70.4c-8.1 9.2-8 24.1 0.2 33.2 4 4.5 9.3 6.8 14.6 6.8 5.4 0 10.7-2.3 14.8-7l61.5-70.4c8.1-9.3 8-24.1-0.2-33.2zM775.3 688.4l-61.5 70.4c-8.1 9.2-8 24.1 0.2 33.2 4 4.5 9.3 6.8 14.6 6.8 5.4 0 10.7-2.3 14.8-7l61.5-70.4c8.1-9.2 8-24.1-0.2-33.2-8.2-9.2-21.3-9.1-29.4 0.2zM613.5 688.4L490.4 829.3c-8.1 9.2-8 24.1 0.2 33.2 4 4.5 9.3 6.8 14.6 6.8 5.4 0 10.7-2.3 14.8-7l123-140.9c8.1-9.2 8-24.1-0.2-33.2-8.1-9.2-21.3-9.1-29.3 0.2z" fill="#211F1E" /></svg>